<svg width="124" height="41" viewBox="0 0 124 41" fill="none" xmlns="http://www.w3.org/2000/svg">
<path d="M7.51128 28.1646C5.38328 28.1646 3.85528 27.7166 2.92728 26.8206C1.99928 25.9246 1.53528 24.6286 1.53528 22.9326V16.5966C1.53528 14.9006 1.99928 13.6046 2.92728 12.7086C3.85528 11.8126 5.38328 11.3646 7.51128 11.3646H13.1273V14.0046H7.51128C6.63128 14.0046 5.97528 14.2126 5.54328 14.6286C5.12728 15.0446 4.91928 15.7006 4.91928 16.5966V18.4446H12.0713V21.0846H4.91928V22.9326C4.91928 23.8126 5.12728 24.4686 5.54328 24.9006C5.97528 25.3166 6.63128 25.5246 7.51128 25.5246H13.1753V28.1646H7.51128ZM25.6611 11.3646H33.0531C34.8131 11.3646 36.1571 11.7486 37.0851 12.5166C38.0291 13.2846 38.5011 14.3966 38.5011 15.8526C38.5011 16.6526 38.2611 17.3726 37.7811 18.0126C37.3011 18.6526 36.6051 19.0926 35.6931 19.3326C36.6851 19.5246 37.4851 19.9886 38.0931 20.7246C38.7011 21.4446 39.0051 22.3886 39.0051 23.5566C39.0051 24.9806 38.5011 26.1086 37.4931 26.9406C36.5011 27.7566 35.1411 28.1646 33.4131 28.1646H25.6611V11.3646ZM32.9811 18.1326C33.6211 18.1326 34.1331 17.9486 34.5171 17.5806C34.9171 17.1966 35.1171 16.6926 35.1171 16.0686C35.1171 15.4446 34.9171 14.9486 34.5171 14.5806C34.1331 14.1966 33.6211 14.0046 32.9811 14.0046H29.0451V18.1326H32.9811ZM32.6931 25.5246C33.6851 25.5246 34.4211 25.3326 34.9011 24.9486C35.3811 24.5486 35.6211 23.9486 35.6211 23.1486C35.6211 22.3486 35.3811 21.7566 34.9011 21.3726C34.4211 20.9726 33.6851 20.7726 32.6931 20.7726H29.0451V25.5246H32.6931ZM51.7142 11.3646H57.9542C59.8422 11.3646 61.3302 11.6366 62.4182 12.1806C63.5222 12.7246 64.3142 13.6046 64.7942 14.8206C65.2902 16.0206 65.5382 17.6686 65.5382 19.7646C65.5382 21.8606 65.2902 23.5166 64.7942 24.7326C64.3142 25.9326 63.5222 26.8046 62.4182 27.3486C61.3302 27.8926 59.8422 28.1646 57.9542 28.1646H51.7142V11.3646ZM57.9542 25.5246C59.0102 25.5246 59.8422 25.3406 60.4502 24.9726C61.0582 24.6046 61.4902 24.0046 61.7462 23.1726C62.0182 22.3406 62.1542 21.2046 62.1542 19.7646C62.1542 18.3246 62.0182 17.1886 61.7462 16.3566C61.4902 15.5246 61.0582 14.9246 60.4502 14.5566C59.8422 14.1886 59.0102 14.0046 57.9542 14.0046H55.0982V25.5246H57.9542Z" fill="white"/>
<g clip-path="url(#clip0_19_42)">
<path d="M100.393 1.63263L122.536 11.3637C122.83 11.4914 123.084 11.7076 123.269 11.987C123.454 12.2663 123.562 12.5972 123.58 12.9409C123.608 13.3224 123.522 13.7034 123.334 14.0271C123.003 14.4837 122.558 14.8279 122.053 15.0191C114.664 18.2578 107.458 21.5263 100.051 24.765C99.2911 24.9899 98.486 24.957 97.7435 24.6708L75.61 14.9397C75.177 14.7601 74.8253 14.4044 74.6294 13.9477C74.5385 13.7279 74.4918 13.4895 74.4926 13.2484C74.4922 12.8071 74.6137 12.3759 74.8415 12.0107C75.0692 11.6454 75.3925 11.363 75.7696 11.2L97.78 1.64751C98.1389 1.50357 98.5155 1.41832 98.8974 1.39457C99.4056 1.36454 99.9143 1.44549 100.393 1.63263Z" stroke="white" stroke-width="1.5" stroke-miterlimit="10"/>
<mask id="path-3-inside-1_19_42" fill="white">
<path d="M93.6038 6.21912L91.1569 7.28663C90.9348 7.38353 90.827 7.65799 90.9162 7.89964L90.9179 7.90424C91.007 8.1459 91.2594 8.26324 91.4815 8.16634L93.9283 7.09882C94.1504 7.00192 94.2582 6.72747 94.1691 6.48582L94.1674 6.48121C94.0782 6.23956 93.8259 6.12222 93.6038 6.21912Z"/>
</mask>
<path d="M93.6038 6.21912L91.1569 7.28663C90.9348 7.38353 90.827 7.65799 90.9162 7.89964L90.9179 7.90424C91.007 8.1459 91.2594 8.26324 91.4815 8.16634L93.9283 7.09882C94.1504 7.00192 94.2582 6.72747 94.1691 6.48582L94.1674 6.48121C94.0782 6.23956 93.8259 6.12222 93.6038 6.21912Z" fill="#272525"/>
<path d="M91.503 8.22483L93.9499 7.15731L93.2577 5.28093L90.8108 6.34844L91.503 8.22483ZM93.9499 7.15731C93.6139 7.30389 93.3326 7.10285 93.2508 6.88109L95.0839 6.08133C94.8238 5.37627 94.0378 4.94054 93.2577 5.28093L93.9499 7.15731ZM93.2508 6.88109L93.2525 6.8857L95.0856 6.08593L95.0839 6.08133L93.2508 6.88109ZM93.2525 6.8857C93.1707 6.66394 93.2462 6.30721 93.5822 6.16063L94.2744 8.03701C95.0546 7.69663 95.3457 6.79099 95.0856 6.08593L93.2525 6.8857ZM93.5822 6.16063L91.1353 7.22814L91.8276 9.10453L94.2744 8.03701L93.5822 6.16063ZM91.1353 7.22814C91.4713 7.08156 91.7526 7.28261 91.8344 7.50436L90.0013 8.30413C90.2614 9.00918 91.0474 9.44491 91.8276 9.10453L91.1353 7.22814ZM91.8344 7.50436L91.8327 7.49976L89.9996 8.29952L90.0013 8.30413L91.8344 7.50436ZM91.8327 7.49976C91.9146 7.72151 91.839 8.07825 91.503 8.22483L90.8108 6.34844C90.0306 6.68882 89.7395 7.59446 89.9996 8.29952L91.8327 7.49976Z" fill="white" mask="url(#path-3-inside-1_19_42)"/>
<mask id="path-5-inside-2_19_42" fill="white">
<path d="M89.7517 7.90272L79.9146 12.1945C79.6925 12.2914 79.5847 12.5657 79.6738 12.8072L79.6755 12.8118C79.7646 13.0534 80.0168 13.1706 80.2389 13.0737L90.0761 8.78192C90.2982 8.68503 90.406 8.4107 90.3169 8.16919L90.3152 8.16458C90.2261 7.92307 89.9738 7.80583 89.7517 7.90272Z"/>
</mask>
<path d="M89.7517 7.90272L79.9146 12.1945C79.6925 12.2914 79.5847 12.5657 79.6738 12.8072L79.6755 12.8118C79.7646 13.0534 80.0168 13.1706 80.2389 13.0737L90.0761 8.78192C90.2982 8.68503 90.406 8.4107 90.3169 8.16919L90.3152 8.16458C90.2261 7.92307 89.9738 7.80583 89.7517 7.90272Z" fill="#272525"/>
<path d="M80.2607 13.1327L90.0978 8.84092L89.4056 6.96453L79.5685 11.2563L80.2607 13.1327ZM90.0978 8.84092C89.7622 8.98733 89.4806 8.78678 89.3986 8.56446L91.2317 7.7647C90.9715 7.05936 90.1854 6.62433 89.4056 6.96453L90.0978 8.84092ZM89.3986 8.56446L89.4003 8.56907L91.2334 7.7693L91.2317 7.7647L89.3986 8.56446ZM89.4003 8.56907C89.3183 8.34675 89.3944 7.99015 89.73 7.84373L90.4222 9.72012C91.202 9.37991 91.4937 8.47465 91.2334 7.7693L89.4003 8.56907ZM89.73 7.84373L79.8928 12.1355L80.585 14.0119L90.4222 9.72012L89.73 7.84373ZM79.8928 12.1355C80.2284 11.9891 80.51 12.1896 80.592 12.412L78.7589 13.2117C79.0191 13.9171 79.8053 14.3521 80.585 14.0119L79.8928 12.1355ZM80.592 12.412L80.5903 12.4074L78.7572 13.2071L78.7589 13.2117L80.592 12.412ZM80.5903 12.4074C80.6724 12.6297 80.5963 12.9863 80.2607 13.1327L79.5685 11.2563C78.7887 11.5965 78.497 12.5018 78.7572 13.2071L80.5903 12.4074Z" fill="white" mask="url(#path-5-inside-2_19_42)"/>
<path d="M116.944 17.489V30.4142" stroke="white" stroke-width="1.5" stroke-miterlimit="10"/>
<path d="M116.944 33.9306C117.766 33.9306 118.431 33.2067 118.431 32.3138C118.431 31.4208 117.766 30.6969 116.944 30.6969C116.123 30.6969 115.458 31.4208 115.458 32.3138C115.458 33.2067 116.123 33.9306 116.944 33.9306Z" stroke="white" stroke-width="1.5" stroke-miterlimit="10"/>
<path d="M119.722 40.2543C119.661 40.3164 119.589 40.3642 119.511 40.3949C119.432 40.4256 119.349 40.4385 119.266 40.4329C117.081 40.17 116.228 36.7329 116.228 34.2431C116.414 34.0779 116.635 33.9685 116.871 33.9257C117.136 33.8896 117.405 33.936 117.647 34.0596C117.929 34.7261 118.288 35.351 118.714 35.9195C119.453 37.0007 121.391 38.0869 121.451 38.1167C121.51 38.1703 121.547 38.2468 121.555 38.33C121.558 38.3722 121.552 38.4146 121.538 38.454C121.524 38.4934 121.502 38.529 121.473 38.5581L119.722 40.2543Z" stroke="white" stroke-width="1.5" stroke-miterlimit="10"/>
<path d="M113.414 19.0117V27.9392C113.414 28.8647 113.169 29.7704 112.707 30.5481C112.491 30.8849 112.224 31.1799 111.918 31.421L111.362 31.7979C110.28 32.5797 109.107 33.2003 107.873 33.643L107.75 33.6827C106.792 34.0343 105.812 34.3078 104.817 34.501L102.811 34.8928C102.323 34.9878 101.831 35.0556 101.337 35.0962C100.653 35.1507 99.9691 35.1755 99.2805 35.1557L96.8997 35.0962C95.4649 35.0604 94.0381 34.8542 92.6445 34.4812L92.0698 34.3274C90.4311 33.8896 88.8464 33.2402 87.3494 32.3931C86.6315 31.9851 85.9933 31.4292 85.4704 30.7564C84.8354 29.9343 84.4981 28.8885 84.5217 27.8152L84.6677 21.5511" stroke="white" stroke-width="1.5" stroke-miterlimit="10"/>
</g>
<defs>
<clipPath id="clip0_19_42">
<rect width="50" height="39.8964" fill="white" transform="translate(74 0.948187)"/>
</clipPath>
</defs>
</svg>
